<?xml version="1.0" encoding="UTF-8" standalone="no"?>
<!DOCTYPE svg PUBLIC "-//W3C//DTD SVG 1.1//EN" "http://www.w3.org/Graphics/SVG/1.1/DTD/svg11.dtd">
<svg width="100%" height="100%" viewBox="0 0 1187 1188" version="1.1" xmlns="http://www.w3.org/2000/svg" xmlns:xlink="http://www.w3.org/1999/xlink" xml:space="preserve" style="fill-rule:evenodd;clip-rule:evenodd;stroke-linejoin:round;stroke-miterlimit:2;">
    <g transform="matrix(0.815219,0,0,0.815219,19.1481,97.8332)">
        <g id="logo">
            <g transform="matrix(33.8928,0,0,33.8928,-15699.5,-30691.6)">
                <g transform="matrix(12,0,0,12,463.587,933.419)">
                    <path d="M0.021,-0.365C0.021,-0.41 0.026,-0.451 0.036,-0.489C0.046,-0.526 0.059,-0.558 0.076,-0.584C0.093,-0.61 0.113,-0.633 0.136,-0.653C0.16,-0.674 0.184,-0.69 0.209,-0.702C0.235,-0.714 0.261,-0.724 0.29,-0.732C0.319,-0.74 0.346,-0.745 0.371,-0.748C0.396,-0.751 0.422,-0.752 0.447,-0.752C0.466,-0.752 0.485,-0.751 0.503,-0.75C0.521,-0.748 0.541,-0.745 0.564,-0.741C0.586,-0.737 0.608,-0.731 0.627,-0.722C0.647,-0.714 0.666,-0.703 0.684,-0.691C0.702,-0.679 0.718,-0.663 0.731,-0.644C0.744,-0.624 0.754,-0.603 0.76,-0.578C0.761,-0.569 0.765,-0.542 0.77,-0.498C0.768,-0.488 0.758,-0.483 0.738,-0.483C0.71,-0.483 0.67,-0.484 0.616,-0.485C0.563,-0.487 0.523,-0.487 0.496,-0.487C0.492,-0.489 0.489,-0.491 0.487,-0.495C0.485,-0.499 0.483,-0.503 0.482,-0.508C0.481,-0.512 0.48,-0.517 0.478,-0.522C0.476,-0.528 0.474,-0.532 0.471,-0.536C0.469,-0.54 0.464,-0.544 0.457,-0.547C0.45,-0.549 0.441,-0.551 0.431,-0.551C0.417,-0.551 0.405,-0.548 0.394,-0.544C0.383,-0.539 0.375,-0.533 0.368,-0.526C0.361,-0.52 0.355,-0.51 0.35,-0.499C0.345,-0.487 0.342,-0.476 0.339,-0.467C0.337,-0.457 0.335,-0.445 0.333,-0.43C0.332,-0.415 0.331,-0.403 0.331,-0.395C0.331,-0.387 0.331,-0.375 0.331,-0.361C0.331,-0.357 0.332,-0.335 0.332,-0.333L0.332,-0.318C0.332,-0.308 0.332,-0.299 0.333,-0.292C0.333,-0.286 0.334,-0.277 0.335,-0.266C0.337,-0.255 0.339,-0.246 0.341,-0.239C0.344,-0.232 0.348,-0.224 0.353,-0.216C0.358,-0.207 0.364,-0.201 0.371,-0.196C0.379,-0.191 0.388,-0.186 0.399,-0.183C0.41,-0.179 0.423,-0.178 0.437,-0.178C0.473,-0.178 0.502,-0.181 0.525,-0.188L0.525,-0.248L0.504,-0.248L0.504,-0.247L0.469,-0.247C0.466,-0.247 0.443,-0.246 0.438,-0.246L0.421,-0.266L0.421,-0.4C0.421,-0.409 0.427,-0.418 0.438,-0.428L0.474,-0.428C0.498,-0.428 0.528,-0.427 0.563,-0.427C0.597,-0.426 0.624,-0.426 0.643,-0.426L0.682,-0.426C0.701,-0.426 0.715,-0.426 0.726,-0.425C0.736,-0.425 0.748,-0.423 0.761,-0.421C0.774,-0.418 0.783,-0.414 0.787,-0.408C0.787,-0.366 0.786,-0.303 0.784,-0.222C0.782,-0.14 0.781,-0.081 0.781,-0.044C0.781,-0.043 0.781,-0.041 0.782,-0.039C0.782,-0.037 0.782,-0.035 0.782,-0.034L0.782,-0.023C0.771,-0.01 0.735,0.001 0.674,0.011C0.613,0.021 0.561,0.025 0.52,0.025L0.507,0.025C0.498,0.025 0.484,0.026 0.466,0.027C0.448,0.029 0.435,0.029 0.426,0.029C0.295,0.029 0.194,-0.006 0.125,-0.076C0.055,-0.146 0.021,-0.243 0.021,-0.365Z" style="fill:#b184ff;fill-rule:nonzero;"/>
                </g>
                <g transform="matrix(12,0,0,12,473.43,933.419)">
                    <path d="M0.041,-0.631C0.041,-0.65 0.042,-0.662 0.043,-0.665C0.046,-0.67 0.051,-0.672 0.058,-0.672L0.069,-0.672C0.075,-0.672 0.078,-0.672 0.08,-0.671L0.105,-0.671C0.138,-0.671 0.188,-0.672 0.255,-0.673C0.321,-0.675 0.371,-0.676 0.404,-0.676L0.534,-0.676C0.543,-0.675 0.547,-0.671 0.547,-0.663L0.547,-0.5C0.547,-0.498 0.546,-0.496 0.545,-0.495C0.544,-0.493 0.544,-0.492 0.543,-0.492C0.543,-0.491 0.541,-0.49 0.539,-0.489C0.536,-0.487 0.534,-0.485 0.533,-0.484L0.307,-0.484L0.307,-0.424L0.328,-0.424C0.347,-0.424 0.376,-0.424 0.415,-0.426C0.453,-0.427 0.483,-0.428 0.504,-0.428C0.513,-0.428 0.519,-0.426 0.522,-0.422C0.526,-0.419 0.527,-0.414 0.527,-0.407C0.527,-0.406 0.527,-0.403 0.526,-0.399C0.526,-0.395 0.525,-0.392 0.525,-0.391L0.525,-0.372C0.525,-0.371 0.526,-0.356 0.526,-0.354L0.526,-0.34C0.526,-0.333 0.527,-0.326 0.527,-0.318C0.528,-0.311 0.528,-0.305 0.528,-0.3L0.528,-0.287C0.527,-0.283 0.525,-0.281 0.524,-0.279C0.523,-0.278 0.522,-0.277 0.52,-0.277L0.52,-0.278C0.507,-0.278 0.487,-0.278 0.457,-0.276C0.428,-0.274 0.404,-0.273 0.387,-0.273L0.309,-0.273L0.309,-0.211C0.311,-0.211 0.329,-0.21 0.332,-0.21C0.347,-0.21 0.368,-0.21 0.397,-0.211C0.426,-0.212 0.446,-0.213 0.459,-0.213L0.521,-0.213C0.538,-0.213 0.549,-0.211 0.554,-0.207C0.555,-0.205 0.557,-0.203 0.558,-0.201L0.558,-0.045C0.558,-0.038 0.556,-0.033 0.554,-0.029C0.551,-0.026 0.546,-0.024 0.539,-0.023L0.056,-0.023L0.041,-0.036L0.041,-0.631Z" style="fill:#b184ff;fill-rule:nonzero;"/>
                </g>
                <g transform="matrix(12,0,0,12,480.262,933.419)">
                    <path d="M0.691,-0.672C0.695,-0.671 0.698,-0.665 0.7,-0.655C0.703,-0.645 0.704,-0.633 0.704,-0.618C0.704,-0.603 0.704,-0.588 0.704,-0.575C0.704,-0.561 0.703,-0.547 0.703,-0.533C0.702,-0.518 0.702,-0.509 0.702,-0.506C0.701,-0.493 0.701,-0.475 0.701,-0.451L0.701,-0.399C0.701,-0.377 0.701,-0.345 0.702,-0.306C0.703,-0.266 0.703,-0.237 0.703,-0.218L0.703,-0.04C0.702,-0.029 0.693,-0.023 0.676,-0.023L0.402,-0.023C0.396,-0.025 0.389,-0.038 0.38,-0.064C0.374,-0.082 0.363,-0.11 0.349,-0.149C0.334,-0.189 0.322,-0.223 0.312,-0.253C0.301,-0.283 0.292,-0.312 0.283,-0.34L0.283,-0.343L0.283,-0.34C0.282,-0.318 0.281,-0.286 0.28,-0.244C0.279,-0.201 0.278,-0.17 0.277,-0.148L0.277,-0.049C0.277,-0.039 0.276,-0.032 0.274,-0.029C0.272,-0.025 0.266,-0.022 0.256,-0.02L0.055,-0.02L0.033,-0.041C0.035,-0.095 0.036,-0.18 0.037,-0.295C0.038,-0.41 0.039,-0.495 0.041,-0.551L0.041,-0.656C0.044,-0.668 0.048,-0.674 0.053,-0.674L0.053,-0.672C0.075,-0.672 0.11,-0.673 0.157,-0.674C0.204,-0.675 0.24,-0.676 0.264,-0.676L0.346,-0.676C0.346,-0.676 0.347,-0.676 0.347,-0.675C0.353,-0.673 0.356,-0.67 0.357,-0.667L0.357,-0.664C0.369,-0.632 0.381,-0.6 0.393,-0.566C0.405,-0.532 0.419,-0.491 0.436,-0.443C0.453,-0.395 0.464,-0.362 0.471,-0.344L0.471,-0.416C0.477,-0.531 0.48,-0.612 0.48,-0.66C0.48,-0.665 0.484,-0.669 0.491,-0.67C0.498,-0.671 0.509,-0.672 0.524,-0.672L0.691,-0.672Z" style="fill:#b184ff;fill-rule:nonzero;"/>
                </g>
                <g transform="matrix(12,0,0,12,489.333,933.419)">
                    <path d="M0.041,-0.631C0.041,-0.65 0.042,-0.662 0.043,-0.665C0.046,-0.67 0.051,-0.672 0.058,-0.672L0.069,-0.672C0.075,-0.672 0.078,-0.672 0.08,-0.671L0.105,-0.671C0.138,-0.671 0.188,-0.672 0.255,-0.673C0.321,-0.675 0.371,-0.676 0.404,-0.676L0.534,-0.676C0.543,-0.675 0.547,-0.671 0.547,-0.663L0.547,-0.5C0.547,-0.498 0.546,-0.496 0.545,-0.495C0.544,-0.493 0.544,-0.492 0.543,-0.492C0.543,-0.491 0.541,-0.49 0.539,-0.489C0.536,-0.487 0.534,-0.485 0.533,-0.484L0.307,-0.484L0.307,-0.424L0.328,-0.424C0.347,-0.424 0.376,-0.424 0.415,-0.426C0.453,-0.427 0.483,-0.428 0.504,-0.428C0.513,-0.428 0.519,-0.426 0.522,-0.422C0.526,-0.419 0.527,-0.414 0.527,-0.407C0.527,-0.406 0.527,-0.403 0.526,-0.399C0.526,-0.395 0.525,-0.392 0.525,-0.391L0.525,-0.372C0.525,-0.371 0.526,-0.356 0.526,-0.354L0.526,-0.34C0.526,-0.333 0.527,-0.326 0.527,-0.318C0.528,-0.311 0.528,-0.305 0.528,-0.3L0.528,-0.287C0.527,-0.283 0.525,-0.281 0.524,-0.279C0.523,-0.278 0.522,-0.277 0.52,-0.277L0.52,-0.278C0.507,-0.278 0.487,-0.278 0.457,-0.276C0.428,-0.274 0.404,-0.273 0.387,-0.273L0.309,-0.273L0.309,-0.211C0.311,-0.211 0.329,-0.21 0.332,-0.21C0.347,-0.21 0.368,-0.21 0.397,-0.211C0.426,-0.212 0.446,-0.213 0.459,-0.213L0.521,-0.213C0.538,-0.213 0.549,-0.211 0.554,-0.207C0.555,-0.205 0.557,-0.203 0.558,-0.201L0.558,-0.045C0.558,-0.038 0.556,-0.033 0.554,-0.029C0.551,-0.026 0.546,-0.024 0.539,-0.023L0.056,-0.023L0.041,-0.036L0.041,-0.631Z" style="fill:#b184ff;fill-rule:nonzero;"/>
                </g>
                <g transform="matrix(12,0,0,12,496.165,933.419)">
                    <path d="M0.422,-0.482C0.413,-0.482 0.406,-0.484 0.4,-0.486C0.395,-0.489 0.39,-0.492 0.387,-0.496C0.384,-0.5 0.38,-0.504 0.376,-0.508C0.372,-0.512 0.366,-0.515 0.357,-0.518C0.348,-0.52 0.337,-0.521 0.323,-0.521C0.319,-0.521 0.314,-0.521 0.308,-0.52C0.302,-0.519 0.295,-0.517 0.288,-0.514C0.281,-0.51 0.277,-0.506 0.277,-0.5C0.277,-0.494 0.28,-0.489 0.286,-0.484C0.292,-0.48 0.299,-0.477 0.307,-0.475C0.315,-0.473 0.323,-0.471 0.333,-0.469C0.342,-0.466 0.349,-0.464 0.353,-0.462L0.425,-0.444C0.446,-0.438 0.465,-0.432 0.482,-0.426C0.499,-0.419 0.517,-0.41 0.536,-0.399C0.555,-0.388 0.571,-0.375 0.583,-0.362C0.596,-0.348 0.607,-0.331 0.615,-0.31C0.624,-0.29 0.628,-0.267 0.628,-0.242C0.628,-0.212 0.624,-0.186 0.616,-0.162L0.616,-0.163C0.609,-0.142 0.6,-0.124 0.587,-0.107C0.575,-0.091 0.56,-0.077 0.543,-0.066C0.527,-0.055 0.509,-0.046 0.492,-0.039C0.475,-0.031 0.455,-0.026 0.432,-0.021C0.41,-0.017 0.39,-0.014 0.372,-0.011C0.354,-0.009 0.334,-0.007 0.311,-0.006C0.208,-0.011 0.139,-0.027 0.104,-0.055L0.104,-0.061C0.075,-0.083 0.053,-0.107 0.039,-0.133C0.025,-0.159 0.016,-0.188 0.014,-0.221C0.014,-0.229 0.017,-0.232 0.024,-0.232C0.026,-0.232 0.04,-0.231 0.042,-0.231L0.092,-0.231C0.096,-0.232 0.103,-0.232 0.111,-0.232L0.124,-0.232C0.127,-0.232 0.129,-0.232 0.131,-0.231C0.15,-0.232 0.182,-0.232 0.228,-0.232L0.25,-0.232C0.257,-0.232 0.262,-0.23 0.265,-0.227C0.269,-0.223 0.272,-0.218 0.274,-0.212C0.276,-0.206 0.278,-0.201 0.281,-0.195C0.284,-0.189 0.289,-0.185 0.296,-0.181C0.303,-0.177 0.313,-0.175 0.324,-0.175C0.337,-0.175 0.348,-0.178 0.359,-0.185C0.369,-0.191 0.374,-0.201 0.374,-0.214C0.374,-0.22 0.371,-0.225 0.366,-0.23C0.36,-0.236 0.352,-0.24 0.341,-0.245C0.33,-0.249 0.32,-0.252 0.311,-0.255C0.303,-0.257 0.291,-0.261 0.276,-0.264C0.262,-0.268 0.252,-0.27 0.248,-0.271L0.219,-0.271C0.148,-0.292 0.097,-0.319 0.066,-0.351C0.035,-0.383 0.02,-0.424 0.02,-0.473C0.02,-0.505 0.026,-0.535 0.038,-0.561C0.05,-0.587 0.066,-0.608 0.086,-0.625C0.106,-0.641 0.13,-0.655 0.157,-0.666C0.184,-0.677 0.211,-0.685 0.239,-0.69C0.267,-0.695 0.296,-0.697 0.326,-0.697C0.379,-0.697 0.428,-0.688 0.474,-0.671C0.519,-0.653 0.554,-0.63 0.577,-0.602C0.586,-0.593 0.592,-0.582 0.598,-0.569C0.603,-0.556 0.606,-0.546 0.608,-0.538C0.609,-0.531 0.611,-0.518 0.613,-0.5L0.6,-0.48L0.517,-0.48C0.507,-0.48 0.492,-0.481 0.471,-0.481C0.45,-0.482 0.434,-0.482 0.422,-0.482Z" style="fill:#b184ff;fill-rule:nonzero;"/>
                </g>
            </g>
            <g transform="matrix(10.6143,0,0,10.6143,-3889.51,-8821.67)">
                <g transform="matrix(12,0,0,12,463.587,933.419)">
                    <path d="M0.055,-0.007L0.055,-0.021C0.055,-0.026 0.056,-0.064 0.056,-0.07L0.056,-0.096C0.056,-0.175 0.061,-0.215 0.071,-0.215L0.271,-0.215C0.303,-0.215 0.318,-0.21 0.318,-0.201C0.32,-0.139 0.32,-0.091 0.32,-0.058L0.32,-0.041C0.32,-0.039 0.321,-0.022 0.321,-0.02C0.321,-0.001 0.318,0.008 0.311,0.008L0.07,0.008L0.055,-0.007Z" style="fill:#b184ff;fill-rule:nonzero;"/>
                </g>
                <g transform="matrix(12,0,0,12,468.122,933.419)">
                    <path d="M0.355,-0.004C0.301,-0.004 0.252,-0.013 0.209,-0.031C0.166,-0.05 0.13,-0.075 0.103,-0.108C0.075,-0.14 0.054,-0.178 0.039,-0.222C0.025,-0.265 0.018,-0.313 0.018,-0.364L0.018,-0.371C0.018,-0.373 0.018,-0.379 0.019,-0.388C0.02,-0.397 0.021,-0.403 0.021,-0.406C0.021,-0.408 0.021,-0.414 0.022,-0.421C0.023,-0.429 0.024,-0.435 0.025,-0.438C0.026,-0.442 0.026,-0.447 0.028,-0.454C0.029,-0.461 0.03,-0.467 0.031,-0.471C0.033,-0.475 0.035,-0.481 0.037,-0.487C0.039,-0.493 0.041,-0.499 0.043,-0.504C0.045,-0.51 0.048,-0.516 0.051,-0.521L0.051,-0.521C0.066,-0.552 0.085,-0.579 0.107,-0.602C0.13,-0.624 0.155,-0.642 0.183,-0.655C0.21,-0.667 0.238,-0.676 0.267,-0.682C0.295,-0.688 0.326,-0.69 0.357,-0.69C0.398,-0.69 0.434,-0.686 0.467,-0.678C0.499,-0.67 0.526,-0.66 0.548,-0.646C0.569,-0.633 0.588,-0.617 0.603,-0.598C0.618,-0.579 0.63,-0.559 0.638,-0.539C0.646,-0.519 0.651,-0.497 0.654,-0.474L0.654,-0.432C0.653,-0.427 0.651,-0.424 0.647,-0.421C0.643,-0.419 0.639,-0.417 0.634,-0.417C0.63,-0.416 0.623,-0.416 0.615,-0.416L0.406,-0.416L0.406,-0.458C0.405,-0.469 0.4,-0.479 0.392,-0.488C0.384,-0.497 0.375,-0.502 0.363,-0.502C0.353,-0.502 0.344,-0.5 0.337,-0.496C0.329,-0.491 0.323,-0.486 0.319,-0.479C0.314,-0.472 0.311,-0.464 0.308,-0.454C0.305,-0.445 0.303,-0.435 0.302,-0.425C0.302,-0.415 0.301,-0.404 0.301,-0.394C0.3,-0.383 0.3,-0.373 0.301,-0.364L0.301,-0.295C0.301,-0.287 0.301,-0.279 0.302,-0.271C0.303,-0.264 0.305,-0.254 0.308,-0.242C0.311,-0.23 0.316,-0.22 0.324,-0.212C0.332,-0.205 0.342,-0.201 0.354,-0.201C0.366,-0.201 0.375,-0.206 0.381,-0.217C0.387,-0.227 0.392,-0.24 0.396,-0.254C0.4,-0.269 0.405,-0.279 0.41,-0.284C0.423,-0.284 0.443,-0.284 0.469,-0.284C0.495,-0.283 0.514,-0.283 0.527,-0.283C0.536,-0.283 0.599,-0.284 0.608,-0.284L0.645,-0.284C0.655,-0.284 0.661,-0.278 0.662,-0.265L0.662,-0.246C0.655,-0.181 0.631,-0.129 0.59,-0.089C0.55,-0.05 0.499,-0.024 0.438,-0.014L0.438,-0.011C0.416,-0.006 0.388,-0.004 0.355,-0.004Z" style="fill:#b184ff;fill-rule:nonzero;"/>
                </g>
                <g transform="matrix(12,0,0,12,476.266,933.419)">
                    <path d="M0.01,-0.354L0.009,-0.364C0.015,-0.417 0.021,-0.454 0.026,-0.475C0.039,-0.524 0.062,-0.565 0.095,-0.598L0.106,-0.609C0.122,-0.628 0.146,-0.643 0.178,-0.656L0.196,-0.656C0.228,-0.67 0.281,-0.682 0.354,-0.693C0.372,-0.693 0.391,-0.692 0.411,-0.689C0.431,-0.686 0.453,-0.682 0.478,-0.676C0.502,-0.669 0.525,-0.659 0.548,-0.645C0.571,-0.631 0.59,-0.615 0.604,-0.596L0.604,-0.582C0.658,-0.515 0.685,-0.44 0.685,-0.357C0.685,-0.264 0.663,-0.188 0.62,-0.129L0.601,-0.104C0.586,-0.086 0.567,-0.07 0.545,-0.057C0.522,-0.043 0.499,-0.033 0.474,-0.026C0.449,-0.019 0.425,-0.014 0.402,-0.011C0.379,-0.008 0.356,-0.007 0.333,-0.007C0.299,-0.007 0.267,-0.011 0.237,-0.019C0.207,-0.027 0.178,-0.039 0.152,-0.056C0.125,-0.073 0.102,-0.094 0.082,-0.119C0.061,-0.143 0.045,-0.173 0.032,-0.208C0.02,-0.243 0.012,-0.282 0.01,-0.324L0.01,-0.354ZM0.278,-0.35C0.278,-0.235 0.3,-0.178 0.344,-0.178C0.356,-0.178 0.366,-0.18 0.375,-0.185C0.384,-0.189 0.391,-0.196 0.397,-0.206C0.403,-0.215 0.407,-0.225 0.411,-0.234C0.414,-0.244 0.417,-0.256 0.418,-0.271C0.42,-0.286 0.421,-0.299 0.421,-0.31C0.422,-0.321 0.422,-0.334 0.422,-0.35L0.422,-0.367C0.422,-0.384 0.421,-0.4 0.419,-0.416C0.417,-0.432 0.414,-0.447 0.409,-0.463C0.404,-0.479 0.397,-0.492 0.387,-0.501C0.377,-0.511 0.366,-0.516 0.352,-0.516C0.303,-0.516 0.278,-0.467 0.278,-0.371L0.278,-0.35Z" style="fill:#b184ff;fill-rule:nonzero;"/>
                </g>
                <g transform="matrix(12,0,0,12,484.786,933.419)">
                    <path d="M0.4,-0.67C0.403,-0.671 0.406,-0.671 0.411,-0.672C0.416,-0.672 0.42,-0.673 0.421,-0.673L0.479,-0.375L0.555,-0.674L0.898,-0.674C0.908,-0.674 0.912,-0.655 0.912,-0.616L0.912,-0.041C0.911,-0.036 0.91,-0.032 0.908,-0.028C0.905,-0.025 0.902,-0.023 0.898,-0.022C0.893,-0.021 0.89,-0.02 0.887,-0.02C0.885,-0.02 0.881,-0.02 0.875,-0.02C0.854,-0.02 0.823,-0.019 0.781,-0.019C0.74,-0.018 0.708,-0.018 0.688,-0.018C0.671,-0.028 0.663,-0.065 0.663,-0.13C0.663,-0.146 0.663,-0.167 0.664,-0.194C0.665,-0.22 0.665,-0.239 0.665,-0.252L0.665,-0.295C0.665,-0.297 0.664,-0.315 0.664,-0.317C0.664,-0.328 0.665,-0.346 0.666,-0.371L0.666,-0.334C0.661,-0.315 0.653,-0.285 0.64,-0.246C0.627,-0.207 0.618,-0.177 0.613,-0.158L0.584,-0.033C0.579,-0.024 0.563,-0.02 0.535,-0.02C0.522,-0.02 0.504,-0.02 0.483,-0.021C0.462,-0.021 0.446,-0.021 0.435,-0.021C0.431,-0.021 0.405,-0.021 0.403,-0.021C0.393,-0.021 0.385,-0.022 0.381,-0.024C0.376,-0.027 0.373,-0.032 0.371,-0.04C0.34,-0.176 0.319,-0.272 0.308,-0.328L0.29,-0.412C0.285,-0.317 0.283,-0.217 0.283,-0.111L0.283,-0.025L0.053,-0.025C0.053,-0.027 0.053,-0.032 0.054,-0.038C0.055,-0.045 0.056,-0.048 0.056,-0.049C0.053,-0.111 0.052,-0.188 0.052,-0.28C0.052,-0.308 0.052,-0.345 0.051,-0.391C0.051,-0.437 0.051,-0.469 0.051,-0.486L0.051,-0.659C0.051,-0.663 0.051,-0.667 0.053,-0.669C0.054,-0.671 0.057,-0.674 0.063,-0.678L0.107,-0.678C0.124,-0.678 0.135,-0.678 0.143,-0.679C0.175,-0.679 0.215,-0.677 0.262,-0.674C0.309,-0.671 0.339,-0.67 0.351,-0.67L0.4,-0.67ZM0.666,-0.374L0.666,-0.375L0.666,-0.374Z" style="fill:#b184ff;fill-rule:nonzero;"/>
                </g>
            </g>
            <g transform="matrix(33.2478,0,0,33.2478,-15400.3,-30429.3)">
                <g transform="matrix(12,0,0,12,463.587,933.419)">
                    <path d="M1.029,-0.183C1.029,-0.177 1.03,-0.168 1.03,-0.156C1.031,-0.143 1.031,-0.132 1.032,-0.121C1.032,-0.11 1.032,-0.097 1.032,-0.084C1.033,-0.07 1.032,-0.058 1.031,-0.047C1.03,-0.036 1.028,-0.026 1.026,-0.016C1.024,-0.007 1.02,0.001 1.015,0.006C1.011,0.011 1.005,0.014 0.998,0.014L0.775,0.014C0.76,0.002 0.752,-0.043 0.752,-0.121C0.752,-0.149 0.752,-0.184 0.752,-0.223C0.753,-0.263 0.753,-0.292 0.753,-0.309L0.753,-0.343C0.753,-0.346 0.753,-0.351 0.752,-0.36C0.752,-0.368 0.752,-0.374 0.752,-0.379C0.739,-0.332 0.723,-0.264 0.704,-0.176C0.685,-0.088 0.672,-0.03 0.665,-0C0.662,0.009 0.647,0.014 0.62,0.014L0.447,0.014C0.426,0.014 0.414,0.008 0.41,-0.003L0.363,-0.207C0.359,-0.228 0.354,-0.25 0.349,-0.272C0.344,-0.294 0.338,-0.32 0.332,-0.349C0.325,-0.377 0.32,-0.398 0.316,-0.412C0.313,-0.308 0.311,-0.229 0.311,-0.174L0.311,-0.088C0.311,-0.049 0.311,-0.021 0.312,-0.001C0.31,0.006 0.306,0.01 0.301,0.01L0.255,0.01C0.236,0.01 0.208,0.01 0.17,0.01C0.133,0.011 0.105,0.011 0.086,0.011C0.068,0.011 0.06,0.008 0.06,0.002L0.06,-0.723C0.06,-0.726 0.06,-0.728 0.062,-0.73C0.063,-0.732 0.066,-0.734 0.069,-0.735C0.072,-0.736 0.075,-0.737 0.078,-0.738C0.081,-0.738 0.084,-0.739 0.089,-0.739C0.093,-0.739 0.097,-0.739 0.1,-0.74C0.103,-0.74 0.107,-0.74 0.111,-0.74C0.116,-0.739 0.119,-0.739 0.12,-0.739L0.178,-0.739C0.271,-0.739 0.336,-0.738 0.374,-0.735C0.412,-0.733 0.441,-0.731 0.461,-0.731C0.469,-0.688 0.481,-0.623 0.498,-0.537L0.535,-0.343L0.613,-0.737C0.613,-0.737 0.615,-0.737 0.617,-0.736C0.62,-0.736 0.622,-0.735 0.623,-0.735C0.658,-0.735 0.709,-0.736 0.777,-0.737C0.845,-0.738 0.897,-0.738 0.932,-0.738L1.004,-0.738C1.013,-0.737 1.018,-0.728 1.018,-0.711C1.025,-0.396 1.029,-0.219 1.029,-0.183Z" style="fill:#b184ff;fill-rule:nonzero;"/>
                </g>
                <g transform="matrix(12,0,0,12,476.43,933.419)">
                    <path d="M0.045,-0.018L0.045,-0.036C0.045,-0.092 0.046,-0.174 0.047,-0.283C0.048,-0.391 0.049,-0.474 0.049,-0.529L0.049,-0.731L0.617,-0.731L0.617,-0.556C0.617,-0.555 0.617,-0.552 0.617,-0.549C0.616,-0.546 0.616,-0.543 0.615,-0.542C0.614,-0.541 0.613,-0.539 0.612,-0.536C0.61,-0.534 0.608,-0.532 0.606,-0.531C0.604,-0.53 0.602,-0.529 0.599,-0.529C0.595,-0.528 0.592,-0.527 0.588,-0.527L0.574,-0.527C0.49,-0.527 0.413,-0.529 0.344,-0.531C0.343,-0.526 0.342,-0.518 0.341,-0.507C0.339,-0.496 0.338,-0.487 0.337,-0.478C0.336,-0.47 0.336,-0.462 0.336,-0.454L0.568,-0.454C0.578,-0.454 0.585,-0.453 0.588,-0.45C0.591,-0.448 0.593,-0.443 0.593,-0.438C0.593,-0.436 0.592,-0.424 0.592,-0.422C0.592,-0.406 0.592,-0.383 0.593,-0.353C0.594,-0.322 0.595,-0.299 0.595,-0.283C0.594,-0.277 0.591,-0.273 0.587,-0.273C0.585,-0.273 0.583,-0.274 0.582,-0.275C0.479,-0.27 0.403,-0.268 0.354,-0.268L0.341,-0.268L0.341,-0.197C0.37,-0.197 0.412,-0.199 0.467,-0.201C0.521,-0.204 0.563,-0.205 0.59,-0.205C0.611,-0.205 0.624,-0.201 0.627,-0.191L0.627,-0.154C0.627,-0.139 0.627,-0.116 0.628,-0.085C0.629,-0.054 0.629,-0.031 0.629,-0.016C0.629,0.001 0.622,0.009 0.609,0.009C0.592,0.009 0.566,0.009 0.531,0.008C0.496,0.008 0.469,0.008 0.451,0.008C0.404,0.008 0.337,0.009 0.25,0.011C0.163,0.014 0.1,0.015 0.061,0.016L0.047,-0C0.046,-0.009 0.045,-0.015 0.045,-0.018Z" style="fill:#b184ff;fill-rule:nonzero;"/>
                </g>
                <g transform="matrix(12,0,0,12,484.083,933.419)">
                    <path d="M1.029,-0.183C1.029,-0.177 1.03,-0.168 1.03,-0.156C1.031,-0.143 1.031,-0.132 1.032,-0.121C1.032,-0.11 1.032,-0.097 1.032,-0.084C1.033,-0.07 1.032,-0.058 1.031,-0.047C1.03,-0.036 1.028,-0.026 1.026,-0.016C1.024,-0.007 1.02,0.001 1.015,0.006C1.011,0.011 1.005,0.014 0.998,0.014L0.775,0.014C0.76,0.002 0.752,-0.043 0.752,-0.121C0.752,-0.149 0.752,-0.184 0.752,-0.223C0.753,-0.263 0.753,-0.292 0.753,-0.309L0.753,-0.343C0.753,-0.346 0.753,-0.351 0.752,-0.36C0.752,-0.368 0.752,-0.374 0.752,-0.379C0.739,-0.332 0.723,-0.264 0.704,-0.176C0.685,-0.088 0.672,-0.03 0.665,-0C0.662,0.009 0.647,0.014 0.62,0.014L0.447,0.014C0.426,0.014 0.414,0.008 0.41,-0.003L0.363,-0.207C0.359,-0.228 0.354,-0.25 0.349,-0.272C0.344,-0.294 0.338,-0.32 0.332,-0.349C0.325,-0.377 0.32,-0.398 0.316,-0.412C0.313,-0.308 0.311,-0.229 0.311,-0.174L0.311,-0.088C0.311,-0.049 0.311,-0.021 0.312,-0.001C0.31,0.006 0.306,0.01 0.301,0.01L0.255,0.01C0.236,0.01 0.208,0.01 0.17,0.01C0.133,0.011 0.105,0.011 0.086,0.011C0.068,0.011 0.06,0.008 0.06,0.002L0.06,-0.723C0.06,-0.726 0.06,-0.728 0.062,-0.73C0.063,-0.732 0.066,-0.734 0.069,-0.735C0.072,-0.736 0.075,-0.737 0.078,-0.738C0.081,-0.738 0.084,-0.739 0.089,-0.739C0.093,-0.739 0.097,-0.739 0.1,-0.74C0.103,-0.74 0.107,-0.74 0.111,-0.74C0.116,-0.739 0.119,-0.739 0.12,-0.739L0.178,-0.739C0.271,-0.739 0.336,-0.738 0.374,-0.735C0.412,-0.733 0.441,-0.731 0.461,-0.731C0.469,-0.688 0.481,-0.623 0.498,-0.537L0.535,-0.343L0.613,-0.737C0.613,-0.737 0.615,-0.737 0.617,-0.736C0.62,-0.736 0.622,-0.735 0.623,-0.735C0.658,-0.735 0.709,-0.736 0.777,-0.737C0.845,-0.738 0.897,-0.738 0.932,-0.738L1.004,-0.738C1.013,-0.737 1.018,-0.728 1.018,-0.711C1.025,-0.396 1.029,-0.219 1.029,-0.183Z" style="fill:#b184ff;fill-rule:nonzero;"/>
                </g>
                <g transform="matrix(12,0,0,12,496.926,933.419)">
                    <path d="M0.045,-0.018L0.045,-0.036C0.045,-0.092 0.046,-0.174 0.047,-0.283C0.048,-0.391 0.049,-0.474 0.049,-0.529L0.049,-0.731L0.617,-0.731L0.617,-0.556C0.617,-0.555 0.617,-0.552 0.617,-0.549C0.616,-0.546 0.616,-0.543 0.615,-0.542C0.614,-0.541 0.613,-0.539 0.612,-0.536C0.61,-0.534 0.608,-0.532 0.606,-0.531C0.604,-0.53 0.602,-0.529 0.599,-0.529C0.595,-0.528 0.592,-0.527 0.588,-0.527L0.574,-0.527C0.49,-0.527 0.413,-0.529 0.344,-0.531C0.343,-0.526 0.342,-0.518 0.341,-0.507C0.339,-0.496 0.338,-0.487 0.337,-0.478C0.336,-0.47 0.336,-0.462 0.336,-0.454L0.568,-0.454C0.578,-0.454 0.585,-0.453 0.588,-0.45C0.591,-0.448 0.593,-0.443 0.593,-0.438C0.593,-0.436 0.592,-0.424 0.592,-0.422C0.592,-0.406 0.592,-0.383 0.593,-0.353C0.594,-0.322 0.595,-0.299 0.595,-0.283C0.594,-0.277 0.591,-0.273 0.587,-0.273C0.585,-0.273 0.583,-0.274 0.582,-0.275C0.479,-0.27 0.403,-0.268 0.354,-0.268L0.341,-0.268L0.341,-0.197C0.37,-0.197 0.412,-0.199 0.467,-0.201C0.521,-0.204 0.563,-0.205 0.59,-0.205C0.611,-0.205 0.624,-0.201 0.627,-0.191L0.627,-0.154C0.627,-0.139 0.627,-0.116 0.628,-0.085C0.629,-0.054 0.629,-0.031 0.629,-0.016C0.629,0.001 0.622,0.009 0.609,0.009C0.592,0.009 0.566,0.009 0.531,0.008C0.496,0.008 0.469,0.008 0.451,0.008C0.404,0.008 0.337,0.009 0.25,0.011C0.163,0.014 0.1,0.015 0.061,0.016L0.047,-0C0.046,-0.009 0.045,-0.015 0.045,-0.018Z" style="fill:#b184ff;fill-rule:nonzero;"/>
                </g>
            </g>
            <g transform="matrix(33.8928,0,0,33.8928,-15692.1,-30689.1)">
                <g transform="matrix(12,0,0,12,463.587,933.419)">
                    <path d="M0.021,-0.365C0.021,-0.41 0.026,-0.451 0.036,-0.489C0.046,-0.526 0.059,-0.558 0.076,-0.584C0.093,-0.61 0.113,-0.633 0.136,-0.653C0.16,-0.674 0.184,-0.69 0.209,-0.702C0.235,-0.714 0.261,-0.724 0.29,-0.732C0.319,-0.74 0.346,-0.745 0.371,-0.748C0.396,-0.751 0.422,-0.752 0.447,-0.752C0.466,-0.752 0.485,-0.751 0.503,-0.75C0.521,-0.748 0.541,-0.745 0.564,-0.741C0.586,-0.737 0.608,-0.731 0.627,-0.722C0.647,-0.714 0.666,-0.703 0.684,-0.691C0.702,-0.679 0.718,-0.663 0.731,-0.644C0.744,-0.624 0.754,-0.603 0.76,-0.578C0.761,-0.569 0.765,-0.542 0.77,-0.498C0.768,-0.488 0.758,-0.483 0.738,-0.483C0.71,-0.483 0.67,-0.484 0.616,-0.485C0.563,-0.487 0.523,-0.487 0.496,-0.487C0.492,-0.489 0.489,-0.491 0.487,-0.495C0.485,-0.499 0.483,-0.503 0.482,-0.508C0.481,-0.512 0.48,-0.517 0.478,-0.522C0.476,-0.528 0.474,-0.532 0.471,-0.536C0.469,-0.54 0.464,-0.544 0.457,-0.547C0.45,-0.549 0.441,-0.551 0.431,-0.551C0.417,-0.551 0.405,-0.548 0.394,-0.544C0.383,-0.539 0.375,-0.533 0.368,-0.526C0.361,-0.52 0.355,-0.51 0.35,-0.499C0.345,-0.487 0.342,-0.476 0.339,-0.467C0.337,-0.457 0.335,-0.445 0.333,-0.43C0.332,-0.415 0.331,-0.403 0.331,-0.395C0.331,-0.387 0.331,-0.375 0.331,-0.361C0.331,-0.357 0.332,-0.335 0.332,-0.333L0.332,-0.318C0.332,-0.308 0.332,-0.299 0.333,-0.292C0.333,-0.286 0.334,-0.277 0.335,-0.266C0.337,-0.255 0.339,-0.246 0.341,-0.239C0.344,-0.232 0.348,-0.224 0.353,-0.216C0.358,-0.207 0.364,-0.201 0.371,-0.196C0.379,-0.191 0.388,-0.186 0.399,-0.183C0.41,-0.179 0.423,-0.178 0.437,-0.178C0.473,-0.178 0.502,-0.181 0.525,-0.188L0.525,-0.248L0.504,-0.248L0.504,-0.247L0.469,-0.247C0.466,-0.247 0.443,-0.246 0.438,-0.246L0.421,-0.266L0.421,-0.4C0.421,-0.409 0.427,-0.418 0.438,-0.428L0.474,-0.428C0.498,-0.428 0.528,-0.427 0.563,-0.427C0.597,-0.426 0.624,-0.426 0.643,-0.426L0.682,-0.426C0.701,-0.426 0.715,-0.426 0.726,-0.425C0.736,-0.425 0.748,-0.423 0.761,-0.421C0.774,-0.418 0.783,-0.414 0.787,-0.408C0.787,-0.366 0.786,-0.303 0.784,-0.222C0.782,-0.14 0.781,-0.081 0.781,-0.044C0.781,-0.043 0.781,-0.041 0.782,-0.039C0.782,-0.037 0.782,-0.035 0.782,-0.034L0.782,-0.023C0.771,-0.01 0.735,0.001 0.674,0.011C0.613,0.021 0.561,0.025 0.52,0.025L0.507,0.025C0.498,0.025 0.484,0.026 0.466,0.027C0.448,0.029 0.435,0.029 0.426,0.029C0.295,0.029 0.194,-0.006 0.125,-0.076C0.055,-0.146 0.021,-0.243 0.021,-0.365Z" style="fill:#ece9ff;fill-rule:nonzero;"/>
                </g>
                <g transform="matrix(12,0,0,12,473.43,933.419)">
                    <path d="M0.041,-0.631C0.041,-0.65 0.042,-0.662 0.043,-0.665C0.046,-0.67 0.051,-0.672 0.058,-0.672L0.069,-0.672C0.075,-0.672 0.078,-0.672 0.08,-0.671L0.105,-0.671C0.138,-0.671 0.188,-0.672 0.255,-0.673C0.321,-0.675 0.371,-0.676 0.404,-0.676L0.534,-0.676C0.543,-0.675 0.547,-0.671 0.547,-0.663L0.547,-0.5C0.547,-0.498 0.546,-0.496 0.545,-0.495C0.544,-0.493 0.544,-0.492 0.543,-0.492C0.543,-0.491 0.541,-0.49 0.539,-0.489C0.536,-0.487 0.534,-0.485 0.533,-0.484L0.307,-0.484L0.307,-0.424L0.328,-0.424C0.347,-0.424 0.376,-0.424 0.415,-0.426C0.453,-0.427 0.483,-0.428 0.504,-0.428C0.513,-0.428 0.519,-0.426 0.522,-0.422C0.526,-0.419 0.527,-0.414 0.527,-0.407C0.527,-0.406 0.527,-0.403 0.526,-0.399C0.526,-0.395 0.525,-0.392 0.525,-0.391L0.525,-0.372C0.525,-0.371 0.526,-0.356 0.526,-0.354L0.526,-0.34C0.526,-0.333 0.527,-0.326 0.527,-0.318C0.528,-0.311 0.528,-0.305 0.528,-0.3L0.528,-0.287C0.527,-0.283 0.525,-0.281 0.524,-0.279C0.523,-0.278 0.522,-0.277 0.52,-0.277L0.52,-0.278C0.507,-0.278 0.487,-0.278 0.457,-0.276C0.428,-0.274 0.404,-0.273 0.387,-0.273L0.309,-0.273L0.309,-0.211C0.311,-0.211 0.329,-0.21 0.332,-0.21C0.347,-0.21 0.368,-0.21 0.397,-0.211C0.426,-0.212 0.446,-0.213 0.459,-0.213L0.521,-0.213C0.538,-0.213 0.549,-0.211 0.554,-0.207C0.555,-0.205 0.557,-0.203 0.558,-0.201L0.558,-0.045C0.558,-0.038 0.556,-0.033 0.554,-0.029C0.551,-0.026 0.546,-0.024 0.539,-0.023L0.056,-0.023L0.041,-0.036L0.041,-0.631Z" style="fill:#ece9ff;fill-rule:nonzero;"/>
                </g>
                <g transform="matrix(12,0,0,12,480.262,933.419)">
                    <path d="M0.691,-0.672C0.695,-0.671 0.698,-0.665 0.7,-0.655C0.703,-0.645 0.704,-0.633 0.704,-0.618C0.704,-0.603 0.704,-0.588 0.704,-0.575C0.704,-0.561 0.703,-0.547 0.703,-0.533C0.702,-0.518 0.702,-0.509 0.702,-0.506C0.701,-0.493 0.701,-0.475 0.701,-0.451L0.701,-0.399C0.701,-0.377 0.701,-0.345 0.702,-0.306C0.703,-0.266 0.703,-0.237 0.703,-0.218L0.703,-0.04C0.702,-0.029 0.693,-0.023 0.676,-0.023L0.402,-0.023C0.396,-0.025 0.389,-0.038 0.38,-0.064C0.374,-0.082 0.363,-0.11 0.349,-0.149C0.334,-0.189 0.322,-0.223 0.312,-0.253C0.301,-0.283 0.292,-0.312 0.283,-0.34L0.283,-0.343L0.283,-0.34C0.282,-0.318 0.281,-0.286 0.28,-0.244C0.279,-0.201 0.278,-0.17 0.277,-0.148L0.277,-0.049C0.277,-0.039 0.276,-0.032 0.274,-0.029C0.272,-0.025 0.266,-0.022 0.256,-0.02L0.055,-0.02L0.033,-0.041C0.035,-0.095 0.036,-0.18 0.037,-0.295C0.038,-0.41 0.039,-0.495 0.041,-0.551L0.041,-0.656C0.044,-0.668 0.048,-0.674 0.053,-0.674L0.053,-0.672C0.075,-0.672 0.11,-0.673 0.157,-0.674C0.204,-0.675 0.24,-0.676 0.264,-0.676L0.346,-0.676C0.346,-0.676 0.347,-0.676 0.347,-0.675C0.353,-0.673 0.356,-0.67 0.357,-0.667L0.357,-0.664C0.369,-0.632 0.381,-0.6 0.393,-0.566C0.405,-0.532 0.419,-0.491 0.436,-0.443C0.453,-0.395 0.464,-0.362 0.471,-0.344L0.471,-0.416C0.477,-0.531 0.48,-0.612 0.48,-0.66C0.48,-0.665 0.484,-0.669 0.491,-0.67C0.498,-0.671 0.509,-0.672 0.524,-0.672L0.691,-0.672Z" style="fill:#ece9ff;fill-rule:nonzero;"/>
                </g>
                <g transform="matrix(12,0,0,12,489.333,933.419)">
                    <path d="M0.041,-0.631C0.041,-0.65 0.042,-0.662 0.043,-0.665C0.046,-0.67 0.051,-0.672 0.058,-0.672L0.069,-0.672C0.075,-0.672 0.078,-0.672 0.08,-0.671L0.105,-0.671C0.138,-0.671 0.188,-0.672 0.255,-0.673C0.321,-0.675 0.371,-0.676 0.404,-0.676L0.534,-0.676C0.543,-0.675 0.547,-0.671 0.547,-0.663L0.547,-0.5C0.547,-0.498 0.546,-0.496 0.545,-0.495C0.544,-0.493 0.544,-0.492 0.543,-0.492C0.543,-0.491 0.541,-0.49 0.539,-0.489C0.536,-0.487 0.534,-0.485 0.533,-0.484L0.307,-0.484L0.307,-0.424L0.328,-0.424C0.347,-0.424 0.376,-0.424 0.415,-0.426C0.453,-0.427 0.483,-0.428 0.504,-0.428C0.513,-0.428 0.519,-0.426 0.522,-0.422C0.526,-0.419 0.527,-0.414 0.527,-0.407C0.527,-0.406 0.527,-0.403 0.526,-0.399C0.526,-0.395 0.525,-0.392 0.525,-0.391L0.525,-0.372C0.525,-0.371 0.526,-0.356 0.526,-0.354L0.526,-0.34C0.526,-0.333 0.527,-0.326 0.527,-0.318C0.528,-0.311 0.528,-0.305 0.528,-0.3L0.528,-0.287C0.527,-0.283 0.525,-0.281 0.524,-0.279C0.523,-0.278 0.522,-0.277 0.52,-0.277L0.52,-0.278C0.507,-0.278 0.487,-0.278 0.457,-0.276C0.428,-0.274 0.404,-0.273 0.387,-0.273L0.309,-0.273L0.309,-0.211C0.311,-0.211 0.329,-0.21 0.332,-0.21C0.347,-0.21 0.368,-0.21 0.397,-0.211C0.426,-0.212 0.446,-0.213 0.459,-0.213L0.521,-0.213C0.538,-0.213 0.549,-0.211 0.554,-0.207C0.555,-0.205 0.557,-0.203 0.558,-0.201L0.558,-0.045C0.558,-0.038 0.556,-0.033 0.554,-0.029C0.551,-0.026 0.546,-0.024 0.539,-0.023L0.056,-0.023L0.041,-0.036L0.041,-0.631Z" style="fill:#ece9ff;fill-rule:nonzero;"/>
                </g>
                <g transform="matrix(12,0,0,12,496.165,933.419)">
                    <path d="M0.422,-0.482C0.413,-0.482 0.406,-0.484 0.4,-0.486C0.395,-0.489 0.39,-0.492 0.387,-0.496C0.384,-0.5 0.38,-0.504 0.376,-0.508C0.372,-0.512 0.366,-0.515 0.357,-0.518C0.348,-0.52 0.337,-0.521 0.323,-0.521C0.319,-0.521 0.314,-0.521 0.308,-0.52C0.302,-0.519 0.295,-0.517 0.288,-0.514C0.281,-0.51 0.277,-0.506 0.277,-0.5C0.277,-0.494 0.28,-0.489 0.286,-0.484C0.292,-0.48 0.299,-0.477 0.307,-0.475C0.315,-0.473 0.323,-0.471 0.333,-0.469C0.342,-0.466 0.349,-0.464 0.353,-0.462L0.425,-0.444C0.446,-0.438 0.465,-0.432 0.482,-0.426C0.499,-0.419 0.517,-0.41 0.536,-0.399C0.555,-0.388 0.571,-0.375 0.583,-0.362C0.596,-0.348 0.607,-0.331 0.615,-0.31C0.624,-0.29 0.628,-0.267 0.628,-0.242C0.628,-0.212 0.624,-0.186 0.616,-0.162L0.616,-0.163C0.609,-0.142 0.6,-0.124 0.587,-0.107C0.575,-0.091 0.56,-0.077 0.543,-0.066C0.527,-0.055 0.509,-0.046 0.492,-0.039C0.475,-0.031 0.455,-0.026 0.432,-0.021C0.41,-0.017 0.39,-0.014 0.372,-0.011C0.354,-0.009 0.334,-0.007 0.311,-0.006C0.208,-0.011 0.139,-0.027 0.104,-0.055L0.104,-0.061C0.075,-0.083 0.053,-0.107 0.039,-0.133C0.025,-0.159 0.016,-0.188 0.014,-0.221C0.014,-0.229 0.017,-0.232 0.024,-0.232C0.026,-0.232 0.04,-0.231 0.042,-0.231L0.092,-0.231C0.096,-0.232 0.103,-0.232 0.111,-0.232L0.124,-0.232C0.127,-0.232 0.129,-0.232 0.131,-0.231C0.15,-0.232 0.182,-0.232 0.228,-0.232L0.25,-0.232C0.257,-0.232 0.262,-0.23 0.265,-0.227C0.269,-0.223 0.272,-0.218 0.274,-0.212C0.276,-0.206 0.278,-0.201 0.281,-0.195C0.284,-0.189 0.289,-0.185 0.296,-0.181C0.303,-0.177 0.313,-0.175 0.324,-0.175C0.337,-0.175 0.348,-0.178 0.359,-0.185C0.369,-0.191 0.374,-0.201 0.374,-0.214C0.374,-0.22 0.371,-0.225 0.366,-0.23C0.36,-0.236 0.352,-0.24 0.341,-0.245C0.33,-0.249 0.32,-0.252 0.311,-0.255C0.303,-0.257 0.291,-0.261 0.276,-0.264C0.262,-0.268 0.252,-0.27 0.248,-0.271L0.219,-0.271C0.148,-0.292 0.097,-0.319 0.066,-0.351C0.035,-0.383 0.02,-0.424 0.02,-0.473C0.02,-0.505 0.026,-0.535 0.038,-0.561C0.05,-0.587 0.066,-0.608 0.086,-0.625C0.106,-0.641 0.13,-0.655 0.157,-0.666C0.184,-0.677 0.211,-0.685 0.239,-0.69C0.267,-0.695 0.296,-0.697 0.326,-0.697C0.379,-0.697 0.428,-0.688 0.474,-0.671C0.519,-0.653 0.554,-0.63 0.577,-0.602C0.586,-0.593 0.592,-0.582 0.598,-0.569C0.603,-0.556 0.606,-0.546 0.608,-0.538C0.609,-0.531 0.611,-0.518 0.613,-0.5L0.6,-0.48L0.517,-0.48C0.507,-0.48 0.492,-0.481 0.471,-0.481C0.45,-0.482 0.434,-0.482 0.422,-0.482Z" style="fill:#ece9ff;fill-rule:nonzero;"/>
                </g>
            </g>
            <g transform="matrix(10.6143,0,0,10.6143,-3882.15,-8819.22)">
                <g transform="matrix(12,0,0,12,463.587,933.419)">
                    <path d="M0.055,-0.007L0.055,-0.021C0.055,-0.026 0.056,-0.064 0.056,-0.07L0.056,-0.096C0.056,-0.175 0.061,-0.215 0.071,-0.215L0.271,-0.215C0.303,-0.215 0.318,-0.21 0.318,-0.201C0.32,-0.139 0.32,-0.091 0.32,-0.058L0.32,-0.041C0.32,-0.039 0.321,-0.022 0.321,-0.02C0.321,-0.001 0.318,0.008 0.311,0.008L0.07,0.008L0.055,-0.007Z" style="fill:#ece9ff;fill-rule:nonzero;"/>
                </g>
                <g transform="matrix(12,0,0,12,468.122,933.419)">
                    <path d="M0.355,-0.004C0.301,-0.004 0.252,-0.013 0.209,-0.031C0.166,-0.05 0.13,-0.075 0.103,-0.108C0.075,-0.14 0.054,-0.178 0.039,-0.222C0.025,-0.265 0.018,-0.313 0.018,-0.364L0.018,-0.371C0.018,-0.373 0.018,-0.379 0.019,-0.388C0.02,-0.397 0.021,-0.403 0.021,-0.406C0.021,-0.408 0.021,-0.414 0.022,-0.421C0.023,-0.429 0.024,-0.435 0.025,-0.438C0.026,-0.442 0.026,-0.447 0.028,-0.454C0.029,-0.461 0.03,-0.467 0.031,-0.471C0.033,-0.475 0.035,-0.481 0.037,-0.487C0.039,-0.493 0.041,-0.499 0.043,-0.504C0.045,-0.51 0.048,-0.516 0.051,-0.521L0.051,-0.521C0.066,-0.552 0.085,-0.579 0.107,-0.602C0.13,-0.624 0.155,-0.642 0.183,-0.655C0.21,-0.667 0.238,-0.676 0.267,-0.682C0.295,-0.688 0.326,-0.69 0.357,-0.69C0.398,-0.69 0.434,-0.686 0.467,-0.678C0.499,-0.67 0.526,-0.66 0.548,-0.646C0.569,-0.633 0.588,-0.617 0.603,-0.598C0.618,-0.579 0.63,-0.559 0.638,-0.539C0.646,-0.519 0.651,-0.497 0.654,-0.474L0.654,-0.432C0.653,-0.427 0.651,-0.424 0.647,-0.421C0.643,-0.419 0.639,-0.417 0.634,-0.417C0.63,-0.416 0.623,-0.416 0.615,-0.416L0.406,-0.416L0.406,-0.458C0.405,-0.469 0.4,-0.479 0.392,-0.488C0.384,-0.497 0.375,-0.502 0.363,-0.502C0.353,-0.502 0.344,-0.5 0.337,-0.496C0.329,-0.491 0.323,-0.486 0.319,-0.479C0.314,-0.472 0.311,-0.464 0.308,-0.454C0.305,-0.445 0.303,-0.435 0.302,-0.425C0.302,-0.415 0.301,-0.404 0.301,-0.394C0.3,-0.383 0.3,-0.373 0.301,-0.364L0.301,-0.295C0.301,-0.287 0.301,-0.279 0.302,-0.271C0.303,-0.264 0.305,-0.254 0.308,-0.242C0.311,-0.23 0.316,-0.22 0.324,-0.212C0.332,-0.205 0.342,-0.201 0.354,-0.201C0.366,-0.201 0.375,-0.206 0.381,-0.217C0.387,-0.227 0.392,-0.24 0.396,-0.254C0.4,-0.269 0.405,-0.279 0.41,-0.284C0.423,-0.284 0.443,-0.284 0.469,-0.284C0.495,-0.283 0.514,-0.283 0.527,-0.283C0.536,-0.283 0.599,-0.284 0.608,-0.284L0.645,-0.284C0.655,-0.284 0.661,-0.278 0.662,-0.265L0.662,-0.246C0.655,-0.181 0.631,-0.129 0.59,-0.089C0.55,-0.05 0.499,-0.024 0.438,-0.014L0.438,-0.011C0.416,-0.006 0.388,-0.004 0.355,-0.004Z" style="fill:#ece9ff;fill-rule:nonzero;"/>
                </g>
                <g transform="matrix(12,0,0,12,476.266,933.419)">
                    <path d="M0.01,-0.354L0.009,-0.364C0.015,-0.417 0.021,-0.454 0.026,-0.475C0.039,-0.524 0.062,-0.565 0.095,-0.598L0.106,-0.609C0.122,-0.628 0.146,-0.643 0.178,-0.656L0.196,-0.656C0.228,-0.67 0.281,-0.682 0.354,-0.693C0.372,-0.693 0.391,-0.692 0.411,-0.689C0.431,-0.686 0.453,-0.682 0.478,-0.676C0.502,-0.669 0.525,-0.659 0.548,-0.645C0.571,-0.631 0.59,-0.615 0.604,-0.596L0.604,-0.582C0.658,-0.515 0.685,-0.44 0.685,-0.357C0.685,-0.264 0.663,-0.188 0.62,-0.129L0.601,-0.104C0.586,-0.086 0.567,-0.07 0.545,-0.057C0.522,-0.043 0.499,-0.033 0.474,-0.026C0.449,-0.019 0.425,-0.014 0.402,-0.011C0.379,-0.008 0.356,-0.007 0.333,-0.007C0.299,-0.007 0.267,-0.011 0.237,-0.019C0.207,-0.027 0.178,-0.039 0.152,-0.056C0.125,-0.073 0.102,-0.094 0.082,-0.119C0.061,-0.143 0.045,-0.173 0.032,-0.208C0.02,-0.243 0.012,-0.282 0.01,-0.324L0.01,-0.354ZM0.278,-0.35C0.278,-0.235 0.3,-0.178 0.344,-0.178C0.356,-0.178 0.366,-0.18 0.375,-0.185C0.384,-0.189 0.391,-0.196 0.397,-0.206C0.403,-0.215 0.407,-0.225 0.411,-0.234C0.414,-0.244 0.417,-0.256 0.418,-0.271C0.42,-0.286 0.421,-0.299 0.421,-0.31C0.422,-0.321 0.422,-0.334 0.422,-0.35L0.422,-0.367C0.422,-0.384 0.421,-0.4 0.419,-0.416C0.417,-0.432 0.414,-0.447 0.409,-0.463C0.404,-0.479 0.397,-0.492 0.387,-0.501C0.377,-0.511 0.366,-0.516 0.352,-0.516C0.303,-0.516 0.278,-0.467 0.278,-0.371L0.278,-0.35Z" style="fill:#ece9ff;fill-rule:nonzero;"/>
                </g>
                <g transform="matrix(12,0,0,12,484.786,933.419)">
                    <path d="M0.4,-0.67C0.403,-0.671 0.406,-0.671 0.411,-0.672C0.416,-0.672 0.42,-0.673 0.421,-0.673L0.479,-0.375L0.555,-0.674L0.898,-0.674C0.908,-0.674 0.912,-0.655 0.912,-0.616L0.912,-0.041C0.911,-0.036 0.91,-0.032 0.908,-0.028C0.905,-0.025 0.902,-0.023 0.898,-0.022C0.893,-0.021 0.89,-0.02 0.887,-0.02C0.885,-0.02 0.881,-0.02 0.875,-0.02C0.854,-0.02 0.823,-0.019 0.781,-0.019C0.74,-0.018 0.708,-0.018 0.688,-0.018C0.671,-0.028 0.663,-0.065 0.663,-0.13C0.663,-0.146 0.663,-0.167 0.664,-0.194C0.665,-0.22 0.665,-0.239 0.665,-0.252L0.665,-0.295C0.665,-0.297 0.664,-0.315 0.664,-0.317C0.664,-0.328 0.665,-0.346 0.666,-0.371L0.666,-0.334C0.661,-0.315 0.653,-0.285 0.64,-0.246C0.627,-0.207 0.618,-0.177 0.613,-0.158L0.584,-0.033C0.579,-0.024 0.563,-0.02 0.535,-0.02C0.522,-0.02 0.504,-0.02 0.483,-0.021C0.462,-0.021 0.446,-0.021 0.435,-0.021C0.431,-0.021 0.405,-0.021 0.403,-0.021C0.393,-0.021 0.385,-0.022 0.381,-0.024C0.376,-0.027 0.373,-0.032 0.371,-0.04C0.34,-0.176 0.319,-0.272 0.308,-0.328L0.29,-0.412C0.285,-0.317 0.283,-0.217 0.283,-0.111L0.283,-0.025L0.053,-0.025C0.053,-0.027 0.053,-0.032 0.054,-0.038C0.055,-0.045 0.056,-0.048 0.056,-0.049C0.053,-0.111 0.052,-0.188 0.052,-0.28C0.052,-0.308 0.052,-0.345 0.051,-0.391C0.051,-0.437 0.051,-0.469 0.051,-0.486L0.051,-0.659C0.051,-0.663 0.051,-0.667 0.053,-0.669C0.054,-0.671 0.057,-0.674 0.063,-0.678L0.107,-0.678C0.124,-0.678 0.135,-0.678 0.143,-0.679C0.175,-0.679 0.215,-0.677 0.262,-0.674C0.309,-0.671 0.339,-0.67 0.351,-0.67L0.4,-0.67ZM0.666,-0.374L0.666,-0.375L0.666,-0.374Z" style="fill:#ece9ff;fill-rule:nonzero;"/>
                </g>
            </g>
            <g transform="matrix(33.2478,0,0,33.2478,-15392.9,-30426.9)">
                <g transform="matrix(12,0,0,12,463.587,933.419)">
                    <path d="M1.029,-0.183C1.029,-0.177 1.03,-0.168 1.03,-0.156C1.031,-0.143 1.031,-0.132 1.032,-0.121C1.032,-0.11 1.032,-0.097 1.032,-0.084C1.033,-0.07 1.032,-0.058 1.031,-0.047C1.03,-0.036 1.028,-0.026 1.026,-0.016C1.024,-0.007 1.02,0.001 1.015,0.006C1.011,0.011 1.005,0.014 0.998,0.014L0.775,0.014C0.76,0.002 0.752,-0.043 0.752,-0.121C0.752,-0.149 0.752,-0.184 0.752,-0.223C0.753,-0.263 0.753,-0.292 0.753,-0.309L0.753,-0.343C0.753,-0.346 0.753,-0.351 0.752,-0.36C0.752,-0.368 0.752,-0.374 0.752,-0.379C0.739,-0.332 0.723,-0.264 0.704,-0.176C0.685,-0.088 0.672,-0.03 0.665,-0C0.662,0.009 0.647,0.014 0.62,0.014L0.447,0.014C0.426,0.014 0.414,0.008 0.41,-0.003L0.363,-0.207C0.359,-0.228 0.354,-0.25 0.349,-0.272C0.344,-0.294 0.338,-0.32 0.332,-0.349C0.325,-0.377 0.32,-0.398 0.316,-0.412C0.313,-0.308 0.311,-0.229 0.311,-0.174L0.311,-0.088C0.311,-0.049 0.311,-0.021 0.312,-0.001C0.31,0.006 0.306,0.01 0.301,0.01L0.255,0.01C0.236,0.01 0.208,0.01 0.17,0.01C0.133,0.011 0.105,0.011 0.086,0.011C0.068,0.011 0.06,0.008 0.06,0.002L0.06,-0.723C0.06,-0.726 0.06,-0.728 0.062,-0.73C0.063,-0.732 0.066,-0.734 0.069,-0.735C0.072,-0.736 0.075,-0.737 0.078,-0.738C0.081,-0.738 0.084,-0.739 0.089,-0.739C0.093,-0.739 0.097,-0.739 0.1,-0.74C0.103,-0.74 0.107,-0.74 0.111,-0.74C0.116,-0.739 0.119,-0.739 0.12,-0.739L0.178,-0.739C0.271,-0.739 0.336,-0.738 0.374,-0.735C0.412,-0.733 0.441,-0.731 0.461,-0.731C0.469,-0.688 0.481,-0.623 0.498,-0.537L0.535,-0.343L0.613,-0.737C0.613,-0.737 0.615,-0.737 0.617,-0.736C0.62,-0.736 0.622,-0.735 0.623,-0.735C0.658,-0.735 0.709,-0.736 0.777,-0.737C0.845,-0.738 0.897,-0.738 0.932,-0.738L1.004,-0.738C1.013,-0.737 1.018,-0.728 1.018,-0.711C1.025,-0.396 1.029,-0.219 1.029,-0.183Z" style="fill:#ece9ff;fill-rule:nonzero;"/>
                </g>
                <g transform="matrix(12,0,0,12,476.43,933.419)">
                    <path d="M0.045,-0.018L0.045,-0.036C0.045,-0.092 0.046,-0.174 0.047,-0.283C0.048,-0.391 0.049,-0.474 0.049,-0.529L0.049,-0.731L0.617,-0.731L0.617,-0.556C0.617,-0.555 0.617,-0.552 0.617,-0.549C0.616,-0.546 0.616,-0.543 0.615,-0.542C0.614,-0.541 0.613,-0.539 0.612,-0.536C0.61,-0.534 0.608,-0.532 0.606,-0.531C0.604,-0.53 0.602,-0.529 0.599,-0.529C0.595,-0.528 0.592,-0.527 0.588,-0.527L0.574,-0.527C0.49,-0.527 0.413,-0.529 0.344,-0.531C0.343,-0.526 0.342,-0.518 0.341,-0.507C0.339,-0.496 0.338,-0.487 0.337,-0.478C0.336,-0.47 0.336,-0.462 0.336,-0.454L0.568,-0.454C0.578,-0.454 0.585,-0.453 0.588,-0.45C0.591,-0.448 0.593,-0.443 0.593,-0.438C0.593,-0.436 0.592,-0.424 0.592,-0.422C0.592,-0.406 0.592,-0.383 0.593,-0.353C0.594,-0.322 0.595,-0.299 0.595,-0.283C0.594,-0.277 0.591,-0.273 0.587,-0.273C0.585,-0.273 0.583,-0.274 0.582,-0.275C0.479,-0.27 0.403,-0.268 0.354,-0.268L0.341,-0.268L0.341,-0.197C0.37,-0.197 0.412,-0.199 0.467,-0.201C0.521,-0.204 0.563,-0.205 0.59,-0.205C0.611,-0.205 0.624,-0.201 0.627,-0.191L0.627,-0.154C0.627,-0.139 0.627,-0.116 0.628,-0.085C0.629,-0.054 0.629,-0.031 0.629,-0.016C0.629,0.001 0.622,0.009 0.609,0.009C0.592,0.009 0.566,0.009 0.531,0.008C0.496,0.008 0.469,0.008 0.451,0.008C0.404,0.008 0.337,0.009 0.25,0.011C0.163,0.014 0.1,0.015 0.061,0.016L0.047,-0C0.046,-0.009 0.045,-0.015 0.045,-0.018Z" style="fill:#ece9ff;fill-rule:nonzero;"/>
                </g>
                <g transform="matrix(12,0,0,12,484.083,933.419)">
                    <path d="M1.029,-0.183C1.029,-0.177 1.03,-0.168 1.03,-0.156C1.031,-0.143 1.031,-0.132 1.032,-0.121C1.032,-0.11 1.032,-0.097 1.032,-0.084C1.033,-0.07 1.032,-0.058 1.031,-0.047C1.03,-0.036 1.028,-0.026 1.026,-0.016C1.024,-0.007 1.02,0.001 1.015,0.006C1.011,0.011 1.005,0.014 0.998,0.014L0.775,0.014C0.76,0.002 0.752,-0.043 0.752,-0.121C0.752,-0.149 0.752,-0.184 0.752,-0.223C0.753,-0.263 0.753,-0.292 0.753,-0.309L0.753,-0.343C0.753,-0.346 0.753,-0.351 0.752,-0.36C0.752,-0.368 0.752,-0.374 0.752,-0.379C0.739,-0.332 0.723,-0.264 0.704,-0.176C0.685,-0.088 0.672,-0.03 0.665,-0C0.662,0.009 0.647,0.014 0.62,0.014L0.447,0.014C0.426,0.014 0.414,0.008 0.41,-0.003L0.363,-0.207C0.359,-0.228 0.354,-0.25 0.349,-0.272C0.344,-0.294 0.338,-0.32 0.332,-0.349C0.325,-0.377 0.32,-0.398 0.316,-0.412C0.313,-0.308 0.311,-0.229 0.311,-0.174L0.311,-0.088C0.311,-0.049 0.311,-0.021 0.312,-0.001C0.31,0.006 0.306,0.01 0.301,0.01L0.255,0.01C0.236,0.01 0.208,0.01 0.17,0.01C0.133,0.011 0.105,0.011 0.086,0.011C0.068,0.011 0.06,0.008 0.06,0.002L0.06,-0.723C0.06,-0.726 0.06,-0.728 0.062,-0.73C0.063,-0.732 0.066,-0.734 0.069,-0.735C0.072,-0.736 0.075,-0.737 0.078,-0.738C0.081,-0.738 0.084,-0.739 0.089,-0.739C0.093,-0.739 0.097,-0.739 0.1,-0.74C0.103,-0.74 0.107,-0.74 0.111,-0.74C0.116,-0.739 0.119,-0.739 0.12,-0.739L0.178,-0.739C0.271,-0.739 0.336,-0.738 0.374,-0.735C0.412,-0.733 0.441,-0.731 0.461,-0.731C0.469,-0.688 0.481,-0.623 0.498,-0.537L0.535,-0.343L0.613,-0.737C0.613,-0.737 0.615,-0.737 0.617,-0.736C0.62,-0.736 0.622,-0.735 0.623,-0.735C0.658,-0.735 0.709,-0.736 0.777,-0.737C0.845,-0.738 0.897,-0.738 0.932,-0.738L1.004,-0.738C1.013,-0.737 1.018,-0.728 1.018,-0.711C1.025,-0.396 1.029,-0.219 1.029,-0.183Z" style="fill:#ece9ff;fill-rule:nonzero;"/>
                </g>
                <g transform="matrix(12,0,0,12,496.926,933.419)">
                    <path d="M0.045,-0.018L0.045,-0.036C0.045,-0.092 0.046,-0.174 0.047,-0.283C0.048,-0.391 0.049,-0.474 0.049,-0.529L0.049,-0.731L0.617,-0.731L0.617,-0.556C0.617,-0.555 0.617,-0.552 0.617,-0.549C0.616,-0.546 0.616,-0.543 0.615,-0.542C0.614,-0.541 0.613,-0.539 0.612,-0.536C0.61,-0.534 0.608,-0.532 0.606,-0.531C0.604,-0.53 0.602,-0.529 0.599,-0.529C0.595,-0.528 0.592,-0.527 0.588,-0.527L0.574,-0.527C0.49,-0.527 0.413,-0.529 0.344,-0.531C0.343,-0.526 0.342,-0.518 0.341,-0.507C0.339,-0.496 0.338,-0.487 0.337,-0.478C0.336,-0.47 0.336,-0.462 0.336,-0.454L0.568,-0.454C0.578,-0.454 0.585,-0.453 0.588,-0.45C0.591,-0.448 0.593,-0.443 0.593,-0.438C0.593,-0.436 0.592,-0.424 0.592,-0.422C0.592,-0.406 0.592,-0.383 0.593,-0.353C0.594,-0.322 0.595,-0.299 0.595,-0.283C0.594,-0.277 0.591,-0.273 0.587,-0.273C0.585,-0.273 0.583,-0.274 0.582,-0.275C0.479,-0.27 0.403,-0.268 0.354,-0.268L0.341,-0.268L0.341,-0.197C0.37,-0.197 0.412,-0.199 0.467,-0.201C0.521,-0.204 0.563,-0.205 0.59,-0.205C0.611,-0.205 0.624,-0.201 0.627,-0.191L0.627,-0.154C0.627,-0.139 0.627,-0.116 0.628,-0.085C0.629,-0.054 0.629,-0.031 0.629,-0.016C0.629,0.001 0.622,0.009 0.609,0.009C0.592,0.009 0.566,0.009 0.531,0.008C0.496,0.008 0.469,0.008 0.451,0.008C0.404,0.008 0.337,0.009 0.25,0.011C0.163,0.014 0.1,0.015 0.061,0.016L0.047,-0C0.046,-0.009 0.045,-0.015 0.045,-0.018Z" style="fill:#ece9ff;fill-rule:nonzero;"/>
                </g>
            </g>
        </g>
    </g>
</svg>
